<?xml version="1.0" encoding="utf-8"?>
<!-- Generator: Adobe Illustrator 19.0.0, SVG Export Plug-In . SVG Version: 6.00 Build 0)  -->
<svg version="1.1" id="BACKGROUND_2" xmlns="http://www.w3.org/2000/svg" xmlns:xlink="http://www.w3.org/1999/xlink" x="0px"
	 y="0px" viewBox="0 0 750 500" style="enable-background:new 0 0 750 500;" xml:space="preserve">
<style type="text/css">
	.st0{clip-path:url(#SVGID_2_);}
	.st1{fill:#FFA73B;}
	.st2{fill:#0C2E3A;}
	.st3{fill:#78001B;}
	.st4{fill:#F5340B;}
	.st5{fill:#FF823B;}
	.st6{fill:#018790;}
	.st7{fill:#E3651D;}
	.st8{fill:#00A6A6;}
	.st9{fill:#1DCDC3;}
	.st10{fill:none;}
	.st11{fill:#FFD497;}
	.st12{fill:#FF7C4E;}
	.st13{fill:#F54132;}
</style>
<g>
	<g>
		<defs>
			<rect id="SVGID_1_" x="0" y="0" width="750" height="500"/>
		</defs>
		<clipPath id="SVGID_2_">
			<use xlink:href="#SVGID_1_"  style="overflow:visible;"/>
		</clipPath>
		<g class="st0">
			<g>
				<g>
					<g>
						<g>
							<polygon class="st1" points="850.3,340.6 850.3,397.9 800.7,369.3 800.7,369.2 							"/>
						</g>
						<g>
							<polygon class="st2" points="800.7,369.3 800.7,426.5 800.7,426.5 751.2,397.9 							"/>
							<polygon class="st3" points="800.7,369.2 800.7,369.3 751.2,397.9 751.1,397.9 751.1,340.6 							"/>
						</g>
						<g>
							<polygon class="st1" points="800.7,254.7 800.7,312 751.1,283.4 751.1,283.3 							"/>
							<polygon class="st4" points="800.7,312 800.7,312 751.2,340.6 751.1,340.6 751.1,283.4 							"/>
							<polygon class="st4" points="800.7,312 800.7,369.2 751.2,340.6 							"/>
							<polygon class="st5" points="850.3,340.6 800.7,369.2 800.7,312 800.7,312 							"/>
						</g>
					</g>
				</g>
				<g>
					<g>
						<g>
							<polygon class="st6" points="800.7,426.5 800.7,483.8 751.1,455.2 751.1,455.1 							"/>
							<polygon class="st6" points="800.7,483.8 800.7,483.8 751.2,512.4 751.1,512.4 751.1,455.2 							"/>
							<polygon class="st7" points="800.7,483.8 800.7,541 751.2,512.4 							"/>
							<polygon class="st1" points="850.3,455.1 850.3,455.2 800.7,483.8 800.7,483.8 800.7,426.5 							"/>
						</g>
						<g>
							<polygon class="st1" points="850.3,340.6 850.3,397.9 800.7,369.3 800.7,369.2 							"/>
						</g>
						<g>
							<polygon class="st8" points="800.7,426.5 751.1,455.1 751.1,397.9 751.2,397.9 							"/>
							<polygon class="st2" points="800.7,369.3 800.7,426.5 800.7,426.5 751.2,397.9 							"/>
							<polygon class="st1" points="800.7,369.2 800.7,369.3 751.2,397.9 751.1,397.9 751.1,340.6 							"/>
						</g>
					</g>
				</g>
				<g>
					<g>
						<g>
							<polygon class="st3" points="751.1,340.6 751.1,397.9 701.5,369.3 701.5,369.2 							"/>
							<polygon class="st3" points="751.1,397.9 751.1,397.9 701.6,426.5 701.5,426.5 701.5,369.3 							"/>
							<polygon class="st3" points="800.7,369.2 800.7,369.3 751.2,397.9 751.1,397.9 751.1,340.6 							"/>
						</g>
						<g>
							<polygon class="st3" points="701.5,369.3 701.5,426.5 701.5,426.5 652,397.9 							"/>
							<polygon class="st4" points="701.5,369.2 701.5,369.3 652,397.9 651.9,397.9 651.9,340.6 							"/>
						</g>
						<g>
							<polygon class="st9" points="701.5,254.7 701.5,312 651.9,283.4 651.9,283.3 							"/>
							<polygon class="st2" points="701.5,312 701.5,312 652,340.6 651.9,340.6 651.9,283.4 							"/>
							<polygon class="st2" points="701.5,312 701.5,369.2 652,340.6 							"/>
							<polygon class="st6" points="751.1,340.6 701.5,369.2 701.5,312 701.6,312 							"/>
							<polygon class="st6" points="751.1,283.4 751.1,340.6 751.1,340.6 701.6,312 							"/>
							<polygon class="st6" points="733.5,165.7 733.5,182.3 733.5,182.3 719.1,174 							"/>
							<polygon class="st9" points="751.1,226 751.1,226.1 701.6,254.7 701.5,254.7 701.5,197.4 							"/>
						</g>
					</g>
				</g>
				<g>
					<g>
						<g>
							<polygon class="st3" points="701.5,426.5 701.5,483.8 651.9,455.2 651.9,455.1 							"/>
							<polygon class="st3" points="701.5,483.8 701.5,483.8 652,512.4 651.9,512.4 651.9,455.2 							"/>
							<polygon class="st8" points="701.5,483.8 701.5,541 652,512.4 							"/>
							<polygon class="st8" points="751.1,512.4 701.5,541 701.5,483.8 701.6,483.8 							"/>
							<polygon class="st2" points="751.1,455.2 751.1,512.4 751.1,512.4 701.6,483.8 							"/>
							<polygon class="st2" points="751.1,455.1 751.1,455.2 701.6,483.8 701.5,483.8 701.5,426.5 							"/>
						</g>
						<g>
							<polygon class="st4" points="751.1,340.6 751.1,397.9 701.5,369.3 701.5,369.2 							"/>
							<polygon class="st4" points="751.1,397.9 751.1,397.9 701.6,426.5 701.5,426.5 701.5,369.3 							"/>
							<polygon class="st8" points="751.1,397.9 751.1,455.1 701.6,426.5 							"/>
							<polygon class="st5" points="800.7,426.5 751.1,455.1 751.1,397.9 751.2,397.9 							"/>
							<polygon class="st1" points="800.7,369.2 800.7,369.3 751.2,397.9 751.1,397.9 751.1,340.6 							"/>
						</g>
						<g>
							<polygon class="st4" points="701.5,426.5 651.9,455.1 651.9,397.9 652,397.9 							"/>
							<polygon class="st4" points="701.5,369.3 701.5,426.5 701.5,426.5 652,397.9 							"/>
							<polygon class="st10" points="701.5,369.2 701.5,369.3 652,397.9 651.9,397.9 651.9,340.6 							"/>
						</g>
					</g>
				</g>
				<g>
					<g>
						<g>
							<polygon class="st4" points="651.9,340.6 651.9,397.9 602.3,369.3 602.3,369.2 							"/>
							<polygon class="st7" points="651.9,397.9 651.9,397.9 602.4,426.5 602.3,426.5 602.3,369.3 							"/>
							<polygon class="st1" points="701.5,369.2 701.5,369.3 652,397.9 651.9,397.9 651.9,340.6 							"/>
						</g>
						<g>
							<polygon class="st11" points="602.3,254.7 602.3,312 552.7,283.4 552.7,283.3 							"/>
							<polygon class="st5" points="651.9,340.6 602.3,369.2 602.3,312 602.4,312 							"/>
							<polygon class="st5" points="568.5,340.6 545.4,354 545.4,327.3 545.4,327.3 							"/>
							<polygon class="st11" points="568.1,259.1 552.3,268.2 552.3,250 552.3,250 							"/>
							<polygon class="st5" points="651.9,283.4 651.9,340.6 651.9,340.6 602.4,312 							"/>
							<polygon class="st1" points="651.9,283.3 651.9,283.4 602.4,312 602.3,312 602.3,254.7 							"/>
						</g>
					</g>
				</g>
				<g>
					<g>
						<g>
							<polygon class="st12" points="602.3,426.5 602.3,483.8 552.7,455.2 552.7,455.1 							"/>
							<polygon class="st13" points="651.9,512.4 602.3,541 602.3,483.8 602.4,483.8 							"/>
							<polygon class="st13" points="552.7,512.4 503.2,541 503.2,483.8 503.2,483.8 							"/>
							<polygon class="st13" points="651.9,455.2 651.9,512.4 651.9,512.4 602.4,483.8 							"/>
							<polygon class="st13" points="651.9,455.1 651.9,455.2 602.4,483.8 602.3,483.8 602.3,426.5 							"/>
						</g>
						<g>
							<polygon class="st1" points="651.9,340.6 651.9,397.9 602.3,369.3 602.3,369.2 							"/>
							<polygon class="st1" points="651.9,397.9 651.9,397.9 602.4,426.5 602.3,426.5 602.3,369.3 							"/>
							<polygon class="st7" points="651.9,397.9 651.9,455.1 602.4,426.5 							"/>
							<polygon class="st3" points="701.5,426.5 651.9,455.1 651.9,397.9 652,397.9 							"/>
							<polygon class="st1" points="701.5,369.2 701.5,369.3 652,397.9 651.9,397.9 651.9,340.6 							"/>
						</g>
					</g>
				</g>
			</g>
			<g>
				<g>
					<g>
						<g>
							<polygon class="st1" points="-148.8,84.2 -148.8,26.9 -99.2,55.5 -99.2,55.6 							"/>
						</g>
						<g>
							<polygon class="st2" points="-99.2,55.5 -99.2,-1.7 -99.1,-1.7 -49.6,26.9 							"/>
							<polygon class="st3" points="-99.2,55.6 -99.2,55.5 -49.6,26.9 -49.6,26.9 -49.6,84.2 							"/>
						</g>
						<g>
							<polygon class="st1" points="-99.2,170.1 -99.2,112.8 -49.6,141.4 -49.6,141.5 							"/>
							<polygon class="st4" points="-99.2,112.8 -99.2,112.8 -49.7,84.2 -49.6,84.2 -49.6,141.4 							"/>
							<polygon class="st4" points="-99.2,112.8 -99.2,55.6 -49.7,84.2 							"/>
							<polygon class="st5" points="-148.7,84.2 -99.2,55.6 -99.2,112.8 -99.2,112.8 							"/>
						</g>
					</g>
				</g>
				<g>
					<g>
						<g>
							<polygon class="st6" points="-99.2,-1.7 -99.2,-59 -49.6,-30.4 -49.6,-30.3 							"/>
							<polygon class="st6" points="-99.2,-59 -99.2,-59 -49.7,-87.6 -49.6,-87.6 -49.6,-30.4 							"/>
							<polygon class="st7" points="-99.2,-59 -99.2,-116.2 -49.7,-87.6 							"/>
							<polygon class="st1" points="-148.8,-30.3 -148.8,-30.4 -99.2,-59 -99.2,-59 -99.2,-1.7 							"/>
						</g>
						<g>
							<polygon class="st1" points="-148.8,84.2 -148.8,26.9 -99.2,55.5 -99.2,55.6 							"/>
						</g>
						<g>
							<polygon class="st8" points="-99.1,-1.7 -49.6,-30.3 -49.6,26.9 -49.6,26.9 							"/>
							<polygon class="st2" points="-99.2,55.5 -99.2,-1.7 -99.1,-1.7 -49.6,26.9 							"/>
							<polygon class="st1" points="-99.2,55.6 -99.2,55.5 -49.6,26.9 -49.6,26.9 -49.6,84.2 							"/>
						</g>
					</g>
				</g>
				<g>
					<g>
						<g>
							<polygon class="st3" points="-49.6,84.2 -49.6,26.9 0,55.5 0,55.6 							"/>
							<polygon class="st3" points="-49.6,26.9 -49.6,26.9 -0.1,-1.7 0,-1.7 0,55.5 							"/>
							<polygon class="st3" points="-99.2,55.6 -99.2,55.5 -49.6,26.9 -49.6,26.9 -49.6,84.2 							"/>
						</g>
						<g>
							<polygon class="st3" points="0,55.5 0,-1.7 0,-1.7 49.6,26.9 							"/>
							<polygon class="st4" points="0,55.6 0,55.5 49.6,26.9 49.6,26.9 49.6,84.2 							"/>
						</g>
						<g>
							<polygon class="st9" points="0,170.1 0,112.8 49.6,141.4 49.6,141.5 							"/>
							<polygon class="st2" points="0,112.8 0,112.8 49.5,84.2 49.6,84.2 49.6,141.4 							"/>
							<polygon class="st2" points="16.5,174.8 16.5,174.8 33.1,165.2 33.1,165.2 33.1,184.4 							"/>
							<polygon class="st2" points="0,112.8 0,55.6 49.5,84.2 							"/>
							<polygon class="st6" points="-49.5,84.2 0,55.6 0,112.8 0,112.8 							"/>
							<polygon class="st6" points="-49.6,141.4 -49.6,84.2 -49.5,84.2 0,112.8 							"/>
							<polygon class="st9" points="-49.6,198.8 -49.6,198.7 0,170.1 0,170.1 0,227.4 							"/>
						</g>
					</g>
				</g>
				<g>
					<g>
						<g>
							<polygon class="st3" points="0,-1.7 0,-59 49.6,-30.4 49.6,-30.3 							"/>
							<polygon class="st3" points="0,-59 0,-59 49.5,-87.6 49.6,-87.6 49.6,-30.4 							"/>
							<polygon class="st8" points="0,-59 0,-116.2 49.5,-87.6 							"/>
							<polygon class="st8" points="-49.5,-87.6 0,-116.2 0,-59 0,-59 							"/>
							<polygon class="st2" points="-49.6,-30.4 -49.6,-87.6 -49.5,-87.6 0,-59 							"/>
							<polygon class="st2" points="-49.6,-30.3 -49.6,-30.4 0,-59 0,-59 0,-1.7 							"/>
						</g>
						<g>
							<polygon class="st4" points="-49.6,84.2 -49.6,26.9 0,55.5 0,55.6 							"/>
							<polygon class="st4" points="-49.6,26.9 -49.6,26.9 -0.1,-1.7 0,-1.7 0,55.5 							"/>
							<polygon class="st8" points="-49.6,26.9 -49.6,-30.3 -0.1,-1.7 							"/>
							<polygon class="st5" points="-99.1,-1.7 -49.6,-30.3 -49.6,26.9 -49.6,26.9 							"/>
							<polygon class="st1" points="-99.2,55.6 -99.2,55.5 -49.6,26.9 -49.6,26.9 -49.6,84.2 							"/>
						</g>
						<g>
							<polygon class="st4" points="0,-1.7 49.6,-30.3 49.6,26.9 49.6,26.9 							"/>
							<polygon class="st4" points="0,55.5 0,-1.7 0,-1.7 49.6,26.9 							"/>
							<polygon class="st10" points="0,55.6 0,55.5 49.6,26.9 49.6,26.9 49.6,84.2 							"/>
						</g>
					</g>
				</g>
				<g>
					<g>
						<g>
							<polygon class="st4" points="49.6,84.2 49.6,26.9 99.2,55.5 99.2,55.6 							"/>
							<polygon class="st7" points="49.6,26.9 49.6,26.9 99.1,-1.7 99.2,-1.7 99.2,55.5 							"/>
							<polygon class="st1" points="0,55.6 0,55.5 49.6,26.9 49.6,26.9 49.6,84.2 							"/>
						</g>
						<g>
							<polygon class="st1" points="99.2,55.5 99.2,-1.7 99.2,-1.7 148.8,26.9 							"/>
						</g>
						<g>
							<polygon class="st11" points="163.4,38.5 163.4,15.3 163.4,15.3 183.5,26.9 							"/>
						</g>
						<g>
							<polygon class="st11" points="99.2,170.1 99.2,112.8 148.8,141.4 148.8,141.5 							"/>
							<polygon class="st5" points="49.6,84.2 99.2,55.6 99.2,112.8 99.2,112.8 							"/>
							<polygon class="st5" points="49.6,141.4 49.6,84.2 49.6,84.2 99.2,112.8 							"/>
							<polygon class="st1" points="49.6,141.5 49.6,141.4 99.2,112.8 99.2,112.8 99.2,170.1 							"/>
						</g>
					</g>
				</g>
				<g>
					<g>
						<g>
							<polygon class="st12" points="99.2,-1.7 99.2,-59 148.8,-30.4 148.8,-30.3 							"/>
							<polygon class="st13" points="49.6,-87.6 99.2,-116.2 99.2,-59 99.2,-59 							"/>
							<polygon class="st13" points="49.6,-30.4 49.6,-87.6 49.6,-87.6 99.2,-59 							"/>
							<polygon class="st13" points="49.6,-30.3 49.6,-30.4 99.2,-59 99.2,-59 99.2,-1.7 							"/>
						</g>
						<g>
							<polygon class="st1" points="49.6,84.2 49.6,26.9 99.2,55.5 99.2,55.6 							"/>
							<polygon class="st1" points="49.6,26.9 49.6,26.9 99.1,-1.7 99.2,-1.7 99.2,55.5 							"/>
							<polygon class="st7" points="49.6,26.9 49.6,-30.3 99.1,-1.7 							"/>
							<polygon class="st3" points="0,-1.7 49.6,-30.3 49.6,26.9 49.6,26.9 							"/>
							<polygon class="st1" points="0,55.6 0,55.5 49.6,26.9 49.6,26.9 49.6,84.2 							"/>
						</g>
					</g>
				</g>
			</g>
		</g>
	</g>
</g>
</svg>
